<svg width="32" height="32" viewBox="0 0 32 32" fill="none" xmlns="http://www.w3.org/2000/svg">
  <path d="M25.9129 5.37932C26.0892 5.65654 25.7871 5.97949 25.4667 5.90667C24.84 5.72001 24.1467 5.62667 23.44 5.62667H19.0396C18.83 5.62667 18.6326 5.52808 18.5067 5.3605L16.9734 3.32001C16.7856 3.05393 16.9631 2.66667 17.2888 2.66667H20.96C23.0414 2.66667 24.8748 3.74765 25.9129 5.37932Z" fill="#FFFFFC" />
  <path d="M26.8534 8.72C26.2801 8.30667 25.6267 8 24.9201 7.82667C24.4401 7.69334 23.9467 7.62667 23.4401 7.62667H18.4801C17.7067 7.62667 17.6534 7.56001 17.2401 7.01334L15.3734 4.53334C14.5067 3.37334 13.8267 2.66667 11.6534 2.66667H8.56008C5.30675 2.66667 2.66675 5.30667 2.66675 8.56V23.44C2.66675 26.6933 5.30675 29.3333 8.56008 29.3333H23.4401C26.6934 29.3333 29.3334 26.6933 29.3334 23.44V13.52C29.3334 11.5333 28.3601 9.78667 26.8534 8.72ZM19.1867 21.7867H12.8001C12.2801 21.7867 11.8801 21.3733 11.8801 20.8533C11.8801 20.3467 12.2801 19.92 12.8001 19.92H19.1867C19.7067 19.92 20.1201 20.3467 20.1201 20.8533C20.1201 21.3733 19.7067 21.7867 19.1867 21.7867Z" fill="#FFFFFC" />
</svg>