<svg width="32" height="32" viewBox="0 0 32 32" fill="none" xmlns="http://www.w3.org/2000/svg">
  <path d="M19.1333 2.66797H12.8667C11.48 2.66797 10.3467 3.78797 10.3467 5.17464V6.42797C10.3467 7.81464 11.4667 8.93464 12.8533 8.93464H19.1333C20.52 8.93464 21.64 7.81464 21.64 6.42797V5.17464C21.6533 3.78797 20.52 2.66797 19.1333 2.66797Z" fill="#242423" />
  <path d="M22.9867 6.42664C22.9867 8.54664 21.2534 10.28 19.1334 10.28H12.8667C10.7467 10.28 9.01339 8.54664 9.01339 6.42664C9.01339 5.67997 8.21339 5.21331 7.54672 5.55997C5.66672 6.55997 4.38672 8.54664 4.38672 10.8266V23.3733C4.38672 26.6533 7.06672 29.3333 10.3467 29.3333H21.6534C24.9334 29.3333 27.6134 26.6533 27.6134 23.3733V10.8266C27.6134 8.54664 26.3334 6.55997 24.4534 5.55997C23.7867 5.21331 22.9867 5.67997 22.9867 6.42664ZM16.5067 22.6H10.6667C10.1201 22.6 9.66672 22.1466 9.66672 21.6C9.66672 21.0533 10.1201 20.6 10.6667 20.6H16.5067C17.0534 20.6 17.5067 21.0533 17.5067 21.6C17.5067 22.1466 17.0534 22.6 16.5067 22.6ZM20.0001 17.2666H10.6667C10.1201 17.2666 9.66672 16.8133 9.66672 16.2666C9.66672 15.72 10.1201 15.2666 10.6667 15.2666H20.0001C20.5467 15.2666 21.0001 15.72 21.0001 16.2666C21.0001 16.8133 20.5467 17.2666 20.0001 17.2666Z" fill="#242423" />
</svg>