<svg width="56" height="56" viewBox="0 0 56 56" fill="none" xmlns="http://www.w3.org/2000/svg">
  <path d="M28.0013 51.3333C40.888 51.3333 51.3346 40.8866 51.3346 28C51.3346 15.1133 40.888 4.66663 28.0013 4.66663C15.1147 4.66663 4.66797 15.1133 4.66797 28C4.66797 40.8866 15.1147 51.3333 28.0013 51.3333Z" fill="#BBED21" />
  <path d="M38.3971 27.943H34.1813C33.6759 27.943 33.2568 27.5239 33.2568 27.0185V18.4022C33.2568 17.49 33.6143 16.6394 34.2553 15.9985C34.8963 15.3575 35.7468 15 36.659 15H36.6713C38.2122 15.0123 39.6667 15.6163 40.7761 16.7134C41.8855 17.8351 42.4895 19.3143 42.4895 20.8552V23.8382C42.5018 26.2912 40.8501 27.943 38.3971 27.943ZM35.1058 26.094H38.3971C39.8269 26.094 40.6528 25.2681 40.6528 23.8382V20.8552C40.6528 19.7951 40.2337 18.7843 39.4818 18.02C38.7299 17.2804 37.7191 16.8613 36.6713 16.849C36.6713 16.849 36.6713 16.849 36.659 16.849C36.2522 16.849 35.8578 17.0092 35.5619 17.3051C35.2661 17.6009 35.1058 17.983 35.1058 18.4022V26.094V26.094Z" fill="#FFFFFC" />
  <path d="M25.5532 42.2173C24.9738 42.2173 24.4314 41.9954 24.0247 41.5763L21.9784 39.5177C21.8675 39.4068 21.6949 39.3945 21.5716 39.4931L19.4515 41.0709C18.7982 41.5639 17.9353 41.6502 17.1957 41.2804C16.4561 40.9106 16 40.171 16 39.3451V20.8552C16 17.1325 18.1325 15 21.8552 15H36.6472C37.1525 15 37.5717 15.4191 37.5717 15.9245C37.5717 16.4299 37.1525 16.849 36.6472 16.849C35.7966 16.849 35.1063 17.5393 35.1063 18.3898V39.3451C35.1063 40.171 34.6502 40.9106 33.9106 41.2804C33.171 41.6502 32.3082 41.5763 31.6549 41.0832L29.547 39.5054C29.4237 39.4068 29.2512 39.4314 29.1525 39.5301L27.0817 41.6009C26.6749 41.9954 26.1325 42.2173 25.5532 42.2173ZM21.7442 37.5824C22.3112 37.5824 22.8659 37.792 23.2851 38.2234L25.3313 40.282C25.4052 40.3559 25.5039 40.3683 25.5532 40.3683C25.6025 40.3683 25.7011 40.3559 25.775 40.282L27.8459 38.2111C28.6102 37.4468 29.8182 37.3729 30.6687 38.0262L32.7643 39.5917C32.8998 39.6903 33.0231 39.6533 33.0847 39.6163C33.1464 39.5794 33.2573 39.5054 33.2573 39.3451V18.3898C33.2573 17.8351 33.3929 17.3051 33.6271 16.849H21.8552C19.1186 16.849 17.849 18.1186 17.849 20.8552V39.3451C17.849 39.5177 17.9599 39.5917 18.0216 39.6287C18.0955 39.6656 18.2188 39.6903 18.3421 39.5917L20.4499 38.0139C20.8321 37.7304 21.2881 37.5824 21.7442 37.5824Z" fill="#FFFFFC" />
  <path d="M29.2514 30.4207H25.5534C25.048 30.4207 24.6289 30.0015 24.6289 29.4962C24.6289 28.9908 25.048 28.5717 25.5534 28.5717H29.2514C29.7568 28.5717 30.1759 28.9908 30.1759 29.4962C30.1759 30.0015 29.7568 30.4207 29.2514 30.4207Z" fill="#FFFFFC" />
  <path d="M29.2514 25.49H25.5534C25.048 25.49 24.6289 25.0709 24.6289 24.5655C24.6289 24.0601 25.048 23.641 25.5534 23.641H29.2514C29.7568 23.641 30.1759 24.0601 30.1759 24.5655C30.1759 25.0709 29.7568 25.49 29.2514 25.49Z" fill="#FFFFFC" />
  <path d="M21.8186 25.7982C21.1406 25.7982 20.5859 25.2435 20.5859 24.5655C20.5859 23.8875 21.1406 23.3328 21.8186 23.3328C22.4966 23.3328 23.0513 23.8875 23.0513 24.5655C23.0513 25.2435 22.4966 25.7982 21.8186 25.7982Z" fill="#FFFFFC" />
  <path d="M21.8186 30.7288C21.1406 30.7288 20.5859 30.1741 20.5859 29.4962C20.5859 28.8182 21.1406 28.2635 21.8186 28.2635C22.4966 28.2635 23.0513 28.8182 23.0513 29.4962C23.0513 30.1741 22.4966 30.7288 21.8186 30.7288Z" fill="#FFFFFC" />
</svg>