<svg width="56" height="56" viewBox="0 0 56 56" fill="none" xmlns="http://www.w3.org/2000/svg">
  <path d="M28.0013 51.3333C40.888 51.3333 51.3346 40.8866 51.3346 28C51.3346 15.1133 40.888 4.66663 28.0013 4.66663C15.1147 4.66663 4.66797 15.1133 4.66797 28C4.66797 40.8866 15.1147 51.3333 28.0013 51.3333Z" fill="#BBED21" />
  <path d="M40.25 23.7533V29.89C40.25 30.2867 40.2267 30.66 40.18 31.0333C39.83 35.1633 37.38 37.2167 32.9 37.2167H32.2933C31.92 37.2167 31.5467 37.4034 31.3134 37.7067L29.47 40.1567C28.6533 41.2533 27.3467 41.2533 26.53 40.1567L24.6866 37.7067C24.4766 37.45 24.0333 37.2167 23.7067 37.2167H23.1C18.2 37.2167 15.75 36.0033 15.75 29.8667V23.7301C15.75 19.2501 17.8267 16.8 21.9333 16.45C22.3067 16.4033 22.68 16.38 23.0767 16.38H32.8767C37.8 16.4267 40.25 18.8767 40.25 23.7533Z" stroke="#FFFFFC" stroke-width="3.5" stroke-miterlimit="10" stroke-linecap="round" stroke-linejoin="round" />
</svg>