<svg width="56" height="56" viewBox="0 0 56 56" fill="none" xmlns="http://www.w3.org/2000/svg">
  <path d="M28.0003 51.3334C40.8337 51.3334 51.3337 40.8334 51.3337 28.0001C51.3337 15.1667 40.8337 4.66675 28.0003 4.66675C15.167 4.66675 4.66699 15.1667 4.66699 28.0001C4.66699 40.8334 15.167 51.3334 28.0003 51.3334Z" fill="#6F6F6F" />
  <path d="M23.8897 39.0303V37.4725L25.1879 37.2994C25.5149 37.261 25.7264 37.1456 25.8226 36.9533C25.9187 36.7609 25.9668 36.4148 25.9668 35.9147V27.9237C25.9668 27.2698 25.9091 26.8274 25.7937 26.5967C25.6783 26.3466 25.3995 26.1928 24.9571 26.1351L23.832 25.9908L23.9763 24.3465L30.1787 24.0291L30.5537 24.2599V35.9724C30.5537 36.3955 30.5922 36.7129 30.6691 36.9244C30.7653 37.1167 30.9961 37.2417 31.3615 37.2994L32.6308 37.5014V39.0303H23.8897ZM27.8708 21.577C27.0054 21.577 26.3226 21.3655 25.8226 20.9423C25.3225 20.5 25.0725 19.9038 25.0725 19.1537C25.0725 18.4229 25.3129 17.8363 25.7937 17.394C26.2938 16.9516 26.9861 16.7305 27.8708 16.7305C28.794 16.7305 29.4863 16.9516 29.9479 17.394C30.4287 17.8171 30.6691 18.4037 30.6691 19.1537C30.6691 19.9038 30.4191 20.5 29.9191 20.9423C29.419 21.3655 28.7363 21.577 27.8708 21.577Z" fill="#FFFFFC" />
</svg>