<svg width="56" height="56" viewBox="0 0 56 56" fill="none" xmlns="http://www.w3.org/2000/svg">
  <path d="M28.0003 51.3334C40.8337 51.3334 51.3337 40.8334 51.3337 28C51.3337 15.1667 40.8337 4.66669 28.0003 4.66669C15.167 4.66669 4.66699 15.1667 4.66699 28C4.66699 40.8334 15.167 51.3334 28.0003 51.3334Z" fill="#6F6F6F" />
  <path d="M19.2382 40.5738C18.3749 40.5738 17.5682 40.2766 16.9879 39.7246C16.252 39.0311 15.8981 37.9838 16.0255 36.8516L16.5492 32.2661C16.6482 31.4028 17.1719 30.2565 17.7805 29.6337L29.3998 17.335C32.3011 14.2639 35.3298 14.179 38.401 17.0803C41.4721 19.9816 41.557 23.0103 38.6557 26.0814L27.0363 38.3801C26.4419 39.017 25.338 39.6114 24.4747 39.7529L19.9175 40.5313C19.6769 40.5455 19.4646 40.5738 19.2382 40.5738ZM33.9429 17.0661C32.8531 17.0661 31.9049 17.7455 30.9425 18.7645L19.3231 31.0773C19.04 31.3745 18.7145 32.0822 18.6579 32.4926L18.1343 37.0781C18.0777 37.5451 18.1909 37.9272 18.4456 38.1678C18.7004 38.4084 19.0825 38.4933 19.5495 38.4226L24.1067 37.6442C24.5171 37.5734 25.1965 37.2054 25.4795 36.9082L37.0989 24.6095C38.8538 22.7414 39.4907 21.0147 36.9291 18.6088C35.7969 17.519 34.8203 17.0661 33.9429 17.0661Z" fill="#FFFFFC" />
  <path d="M35.9385 28.4449C35.9102 28.4449 35.8677 28.4449 35.8394 28.4449C31.4238 28.0062 27.8714 24.652 27.1921 20.2646C27.1072 19.6844 27.5035 19.1466 28.0837 19.0475C28.664 18.9626 29.2018 19.3589 29.3009 19.9391C29.8387 23.3641 32.6126 25.9965 36.0659 26.3361C36.6461 26.3927 37.0707 26.9164 37.0141 27.4967C36.9433 28.0345 36.4763 28.4449 35.9385 28.4449Z" fill="#FFFFFC" />
</svg>