<svg width="56" height="56" viewBox="0 0 56 56" fill="none" xmlns="http://www.w3.org/2000/svg">
  <path d="M28.0013 51.3334C40.888 51.3334 51.3346 40.8867 51.3346 28C51.3346 15.1134 40.888 4.66669 28.0013 4.66669C15.1147 4.66669 4.66797 15.1134 4.66797 28C4.66797 40.8867 15.1147 51.3334 28.0013 51.3334Z" fill="#BBED21" />
  <path d="M23.0762 13.6033V18.2699" stroke="#FFFFFC" stroke-width="3.5" stroke-miterlimit="10" stroke-linecap="round" stroke-linejoin="round" />
  <path d="M32.9219 13.6033V18.2699" stroke="#FFFFFC" stroke-width="3.5" stroke-miterlimit="10" stroke-linecap="round" stroke-linejoin="round" />
  <path d="M17.5684 23.66H38.4284" stroke="#FFFFFC" stroke-width="3.5" stroke-miterlimit="10" stroke-linecap="round" stroke-linejoin="round" />
  <path d="M31.4993 41.23H24.4993C18.666 41.23 15.166 37.03 15.166 31.8967V24.8967C15.166 19.7634 18.666 15.5634 24.4993 15.5634H31.4993C37.3327 15.5634 40.8327 19.7634 40.8327 24.8967V31.8967C40.8327 37.03 37.3327 41.23 31.4993 41.23Z" stroke="#FFFFFC" stroke-width="3.5" stroke-miterlimit="10" stroke-linecap="round" stroke-linejoin="round" />
</svg>