<svg width="24" height="24" viewBox="0 0 24 24" fill="none" xmlns="http://www.w3.org/2000/svg">
  <path d="M4 20H20" stroke="#242423" stroke-width="1.14286" stroke-linecap="round" stroke-linejoin="round" />
  <path d="M4.88782 19.9994V12.7994C4.88782 11.4714 6.07982 10.3994 7.55182 10.3994H16.4398C17.9118 10.3994 19.1038 11.4714 19.1038 12.7994V19.9994" stroke="#242423" stroke-width="1.14286" stroke-linecap="round" stroke-linejoin="round" />
  <path d="M6.84802 10.3994V8.13542C6.84802 7.17542 7.71202 6.39941 8.78403 6.39941H15.224C16.288 6.39941 17.152 7.17542 17.152 8.13542V10.3994" stroke="#242423" stroke-width="1.14286" stroke-linecap="round" stroke-linejoin="round" />
  <path d="M5.22388 13.585L5.51988 13.593C6.11188 13.601 6.58388 14.081 6.58388 14.673V14.937C6.58388 15.529 7.06388 16.017 7.66388 16.017C8.25588 16.017 8.74388 15.537 8.74388 14.937V14.689C8.74388 14.097 9.22388 13.609 9.82388 13.609C10.4159 13.609 10.9039 14.089 10.9039 14.689V14.937C10.9039 15.529 11.3839 16.017 11.9839 16.017C12.5759 16.017 13.0639 15.537 13.0639 14.937V14.689C13.0639 14.097 13.5439 13.609 14.1439 13.609C14.7359 13.609 15.2239 14.089 15.2239 14.689V14.937C15.2239 15.529 15.7039 16.017 16.3039 16.017C16.8959 16.017 17.3839 15.537 17.3839 14.937V14.689C17.3839 14.097 17.8639 13.609 18.4639 13.609H18.8239" stroke="#242423" stroke-width="1.14286" stroke-linecap="round" stroke-linejoin="round" />
  <path d="M8.79993 6.39981V4.7998" stroke="#242423" stroke-width="1.14286" stroke-linecap="round" stroke-linejoin="round" />
  <path d="M15.2001 6.39981V4.7998" stroke="#242423" stroke-width="1.14286" stroke-linecap="round" stroke-linejoin="round" />
  <path d="M12 6.4V4" stroke="#242423" stroke-width="1.14286" stroke-linecap="round" stroke-linejoin="round" />
</svg>