<svg width="66" height="66" viewBox="0 0 66 66" fill="none" xmlns="http://www.w3.org/2000/svg">
  <path d="M32.9997 12.7875C19.8547 12.7875 9.15723 23.485 9.15723 36.63C9.15723 49.775 19.8547 60.5 32.9997 60.5C46.1447 60.5 56.8422 49.8025 56.8422 36.6575C56.8422 23.5125 46.1447 12.7875 32.9997 12.7875ZM35.0622 35.75C35.0622 36.8775 34.1272 37.8125 32.9997 37.8125C31.8722 37.8125 30.9372 36.8775 30.9372 35.75V22C30.9372 20.8725 31.8722 19.9375 32.9997 19.9375C34.1272 19.9375 35.0622 20.8725 35.0622 22V35.75Z" fill="#FF2C2C" />
  <path d="M40.9473 9.4875H25.0523C23.9523 9.4875 23.0723 8.6075 23.0723 7.5075C23.0723 6.4075 23.9523 5.5 25.0523 5.5H40.9473C42.0473 5.5 42.9273 6.38 42.9273 7.48C42.9273 8.58 42.0473 9.4875 40.9473 9.4875Z" fill="#FF2C2C" />
</svg>