<svg width="66" height="66" viewBox="0 0 66 66" fill="none" xmlns="http://www.w3.org/2000/svg">
  <path d="M46.0631 9.79V5.5C46.0631 4.3725 45.1281 3.4375 44.0006 3.4375C42.8731 3.4375 41.9381 4.3725 41.9381 5.5V9.625H24.0631V5.5C24.0631 4.3725 23.1281 3.4375 22.0006 3.4375C20.8731 3.4375 19.9381 4.3725 19.9381 5.5V9.79C12.5131 10.4775 8.91063 14.905 8.36063 21.4775C8.30563 22.275 8.96563 22.935 9.73563 22.935H56.2656C57.0631 22.935 57.7231 22.2475 57.6406 21.4775C57.0906 14.905 53.4881 10.4775 46.0631 9.79Z" fill="#FF2C2C" />
  <path d="M52.25 41.25C46.1725 41.25 41.25 46.1725 41.25 52.25C41.25 54.3125 41.8275 56.265 42.845 57.915C44.7425 61.105 48.235 63.25 52.25 63.25C56.265 63.25 59.7575 61.105 61.655 57.915C62.6725 56.265 63.25 54.3125 63.25 52.25C63.25 46.1725 58.3275 41.25 52.25 41.25ZM57.9425 51.0675L52.085 56.485C51.7 56.8425 51.1775 57.035 50.6825 57.035C50.16 57.035 49.6375 56.8425 49.225 56.43L46.5025 53.7075C45.705 52.91 45.705 51.59 46.5025 50.7925C47.3 49.995 48.62 49.995 49.4175 50.7925L50.7375 52.1125L55.1375 48.0425C55.9625 47.2725 57.2825 47.3275 58.0525 48.1525C58.8225 48.9775 58.7675 50.27 57.9425 51.0675Z" fill="#FF2C2C" />
  <path d="M55 27.0596H11C9.4875 27.0596 8.25 28.2971 8.25 29.8096V46.7496C8.25 54.9996 12.375 60.4996 22 60.4996H35.5575C37.455 60.4996 38.775 58.6571 38.17 56.8696C37.62 55.2746 37.1525 53.5146 37.1525 52.2496C37.1525 43.9171 43.945 37.1246 52.2775 37.1246C53.075 37.1246 53.8725 37.1796 54.6425 37.3171C56.2925 37.5646 57.7775 36.2721 57.7775 34.6221V29.8371C57.75 28.2971 56.5125 27.0596 55 27.0596ZM25.3275 50.0771C24.805 50.5721 24.09 50.8746 23.375 50.8746C22.66 50.8746 21.945 50.5721 21.4225 50.0771C20.9275 49.5546 20.625 48.8396 20.625 48.1246C20.625 47.4096 20.9275 46.6946 21.4225 46.1721C21.6975 45.9246 21.9725 45.7321 22.33 45.5946C23.3475 45.1546 24.5575 45.4021 25.3275 46.1721C25.8225 46.6946 26.125 47.4096 26.125 48.1246C26.125 48.8396 25.8225 49.5546 25.3275 50.0771ZM25.3275 40.4521C25.19 40.5621 25.0525 40.6721 24.915 40.7821C24.75 40.8921 24.585 40.9746 24.42 41.0296C24.255 41.1121 24.09 41.1671 23.925 41.1946C23.7325 41.2221 23.54 41.2496 23.375 41.2496C22.66 41.2496 21.945 40.9471 21.4225 40.4521C20.9275 39.9296 20.625 39.2146 20.625 38.4996C20.625 37.7846 20.9275 37.0696 21.4225 36.5471C22.055 35.9146 23.0175 35.6121 23.925 35.8046C24.09 35.8321 24.255 35.8871 24.42 35.9696C24.585 36.0246 24.75 36.1071 24.915 36.2171C25.0525 36.3271 25.19 36.4371 25.3275 36.5471C25.8225 37.0696 26.125 37.7846 26.125 38.4996C26.125 39.2146 25.8225 39.9296 25.3275 40.4521ZM34.9525 40.4521C34.43 40.9471 33.715 41.2496 33 41.2496C32.285 41.2496 31.57 40.9471 31.0475 40.4521C30.5525 39.9296 30.25 39.2146 30.25 38.4996C30.25 37.7846 30.5525 37.0696 31.0475 36.5471C32.0925 35.5296 33.935 35.5296 34.9525 36.5471C35.4475 37.0696 35.75 37.7846 35.75 38.4996C35.75 39.2146 35.4475 39.9296 34.9525 40.4521Z" fill="#FF2C2C" />
</svg>