<svg width="42" height="42" viewBox="0 0 42 42" fill="none" xmlns="http://www.w3.org/2000/svg">
<path d="M31 19.5V24.5C31 28 29 29.5 26 29.5H16C13 29.5 11 28 11 24.5V17.5C11 14 13 12.5 16 12.5H23" stroke="#6F6F6F" stroke-width="1.5" stroke-miterlimit="10" stroke-linecap="round" stroke-linejoin="round"/>
<path d="M16 18L19.13 20.5C20.16 21.32 21.85 21.32 22.88 20.5L24.06 19.56" stroke="#6F6F6F" stroke-width="1.5" stroke-miterlimit="10" stroke-linecap="round" stroke-linejoin="round"/>
<path d="M28.5 17C29.8807 17 31 15.8807 31 14.5C31 13.1193 29.8807 12 28.5 12C27.1193 12 26 13.1193 26 14.5C26 15.8807 27.1193 17 28.5 17Z" stroke="#6F6F6F" stroke-width="1.5" stroke-miterlimit="10" stroke-linecap="round" stroke-linejoin="round"/>
</svg>
