<svg width="42" height="42" viewBox="0 0 42 42" fill="none" xmlns="http://www.w3.org/2000/svg">
<path d="M30 14.9805C26.67 14.6505 23.32 14.4805 19.98 14.4805C18 14.4805 16.02 14.5805 14.04 14.7805L12 14.9805" stroke="#6F6F6F" stroke-width="1.5" stroke-linecap="round" stroke-linejoin="round"/>
<path d="M17.5 13.97L17.72 12.66C17.88 11.71 18 11 19.69 11H22.31C24 11 24.13 11.75 24.28 12.67L24.5 13.97" stroke="#6F6F6F" stroke-width="1.5" stroke-linecap="round" stroke-linejoin="round"/>
<path d="M27.8499 18.1396L27.1999 28.2096C27.0899 29.7796 26.9999 30.9996 24.2099 30.9996H17.7899C14.9999 30.9996 14.9099 29.7796 14.7999 28.2096L14.1499 18.1396" stroke="#6F6F6F" stroke-width="1.5" stroke-linecap="round" stroke-linejoin="round"/>
<path d="M19.3301 25.5H22.6601" stroke="#6F6F6F" stroke-width="1.5" stroke-linecap="round" stroke-linejoin="round"/>
<path d="M18.5 21.5H23.5" stroke="#6F6F6F" stroke-width="1.5" stroke-linecap="round" stroke-linejoin="round"/>
</svg>
