<svg width="56" height="57" viewBox="0 0 56 57" fill="none" xmlns="http://www.w3.org/2000/svg">
<g filter="url(#filter0_d_1715_2882)">
<path d="M28 51C40.7025 51 51 40.7025 51 28C51 15.2975 40.7025 5 28 5C15.2975 5 5 15.2975 5 28C5 40.7025 15.2975 51 28 51Z" fill="#BBED21"/>
</g>
<path d="M13.2605 15.5032C13.0198 15.9267 12.9642 16.0813 13.0198 16.1351C13.063 16.1755 14.6061 17.1839 16.4578 18.3805C18.3095 19.5771 19.8525 20.5855 19.8958 20.6259C19.9513 20.6797 19.3958 21.7351 17.6243 24.9351C16.3343 27.2612 15.2603 29.1637 15.2295 29.1569C15.1986 29.1502 14.8777 28.9149 14.5073 28.6326C14.1432 28.3569 13.816 28.1351 13.7852 28.1485C13.7481 28.162 13.5815 28.3838 13.4148 28.6527C13.1432 29.0763 13.1124 29.1502 13.1926 29.2309C13.2358 29.2847 13.6802 29.6343 14.174 30.0107L15.069 30.6964L15.3838 30.6494L15.6924 30.609L16.0381 31.167C16.2232 31.4763 16.4763 31.8595 16.5997 32.0208L16.8158 32.3166L16.6676 32.6662C16.3467 33.4191 16.359 34.125 16.6923 34.7166C16.8898 35.0662 17.3466 35.4292 17.7354 35.5435C17.9391 35.604 18.0009 35.651 18.0009 35.7586C18.0009 36.4309 18.5687 37.2376 19.1674 37.4326C19.3526 37.4931 19.6303 37.5401 19.7847 37.5401H20.0686L20.0809 37.9099C20.118 39.0729 21.1179 39.9199 22.2042 39.6981C22.3894 39.6645 22.5807 39.6174 22.6363 39.5905C22.7165 39.5569 22.7597 39.604 22.8153 39.7855C22.9202 40.1485 23.3769 40.6594 23.7534 40.8342C24.2349 41.0628 24.8459 41.0561 25.3089 40.8073C25.6298 40.6393 25.8212 40.4376 26.4075 39.6712L26.5495 39.4763L27.321 39.8124C28.5555 40.3502 29.6604 40.767 30.0183 40.841C30.8763 41.0157 31.7342 40.5519 32.2033 39.6578L32.3823 39.3216L32.8576 39.3149C33.3761 39.3015 33.623 39.2141 34.0242 38.8981C34.3637 38.6292 34.6661 37.9838 34.6661 37.5401V37.2242L34.9685 37.1838C35.3574 37.1368 35.7092 36.9418 35.9931 36.6191C36.3264 36.2494 36.4684 35.8931 36.5054 35.3687C36.5363 34.9317 36.5425 34.9183 36.703 34.9183C37.1844 34.9183 37.851 34.441 38.1473 33.8897C38.3448 33.5267 38.4312 32.962 38.3695 32.5317L38.3139 32.1956L38.6349 31.8998C38.8139 31.7317 39.1842 31.3485 39.4682 31.046L39.9805 30.5015L40.3323 30.5889C40.5236 30.6427 40.7397 30.683 40.8137 30.683C40.9248 30.683 42.579 29.4864 42.8074 29.2376C42.8876 29.1502 42.8629 29.0763 42.5852 28.6527C42.4185 28.3838 42.2519 28.162 42.2148 28.1485C42.184 28.1351 41.863 28.3502 41.4988 28.6259C41.1409 28.9082 40.8199 29.1435 40.7829 29.1502C40.7458 29.1637 39.6657 27.2612 38.3757 24.9351C36.2832 21.157 36.0425 20.6931 36.1289 20.6124C36.1845 20.5721 37.7337 19.557 39.5669 18.3671C41.4063 17.1839 42.937 16.1755 42.9802 16.1351C43.0358 16.0813 42.9802 15.9267 42.7395 15.5032C42.4432 14.9721 42.4247 14.9519 42.2951 15.0393C42.2272 15.0931 40.5421 16.1822 38.5547 17.4662C36.5672 18.757 34.913 19.8528 34.876 19.8998C34.8389 19.9536 34.771 20.1754 34.7278 20.3906L34.6538 20.7939L34.8698 21.1839L35.092 21.5738L34.8328 21.6948C34.6908 21.762 34.4994 21.836 34.413 21.8561C34.3204 21.8763 33.3761 21.641 32.0861 21.278L29.9134 20.6595L29.1295 20.767C27.1914 21.0225 24.3583 21.7149 23.8769 22.0511C23.7534 22.1385 23.6856 22.1317 23.1979 21.9704C22.7042 21.8091 21.3401 21.2578 21.2043 21.1704C21.1734 21.1435 21.1981 21.0561 21.2475 20.962C21.3401 20.8208 21.3401 20.7469 21.2722 20.3973C21.229 20.1754 21.1611 19.9536 21.124 19.8998C21.087 19.846 19.4328 18.757 17.4453 17.4662C15.4579 16.1822 13.7728 15.0864 13.7049 15.0393C13.5753 14.9519 13.5568 14.9721 13.2605 15.5032ZM31.9935 22.6158C33.1601 22.9452 34.2217 23.2208 34.3513 23.2208C34.4871 23.2208 34.8513 23.1133 35.1661 22.9855C35.4747 22.8511 35.7401 22.757 35.7463 22.7637C35.7895 22.8107 39.2521 29.1099 39.2768 29.1838C39.2953 29.2309 39.1719 29.4393 39.0052 29.6477C38.6719 30.0847 37.635 31.0998 37.5609 31.0729C37.5362 31.0595 36.6659 30.2662 35.6228 29.3116L33.7279 27.5704L31.5985 26.1317C30.4319 25.3385 29.3579 24.646 29.2159 24.5855C29.0555 24.5183 28.753 24.478 28.4321 24.4712C27.9938 24.4712 27.784 24.5116 27.142 24.7267C26.7223 24.8679 26.315 25.0091 26.2347 25.0494C26.1607 25.0897 25.7162 25.5738 25.2471 26.1317C24.5559 26.9519 24.3336 27.167 24.0621 27.3082C23.4263 27.6242 22.6424 27.3956 22.7042 26.9116C22.7165 26.8175 23.1424 25.9301 23.6547 24.9485L24.5744 23.1603L24.9756 23.0259C26.2532 22.6023 28.8024 22.0578 29.6912 22.0175C29.79 22.0175 30.8207 22.2796 31.9935 22.6158ZM22.1672 22.9923C22.6424 23.167 23.0436 23.3217 23.056 23.3284C23.0683 23.3418 22.7412 24.0007 22.3276 24.7872C21.5067 26.3738 21.4018 26.6897 21.5129 27.2544C21.5499 27.4427 21.624 27.6847 21.6734 27.7922C22.0375 28.5586 23.093 28.9553 24.0744 28.7065C24.8459 28.5116 25.1114 28.283 26.4569 26.6763L26.8581 26.2057L27.5494 25.9771C28.6234 25.6343 28.4753 25.5805 30.9072 27.2275L32.9811 28.6326L35.0241 30.5082C36.2956 31.6779 37.0918 32.4578 37.1412 32.5721C37.3264 33.0695 36.8634 33.7216 36.4005 33.6208C36.3079 33.6006 35.1969 32.9687 33.9316 32.2225C32.6663 31.4763 31.5923 30.8645 31.5367 30.8578C31.4688 30.8511 31.3392 31.0393 31.1664 31.3956L30.901 31.9469L32.5799 32.9351C34.5241 34.0779 34.592 34.125 35.0056 34.5284C35.2895 34.8107 35.3142 34.8578 35.3142 35.1468C35.3142 35.4023 35.2833 35.4897 35.1105 35.6712C34.7402 36.0746 34.6846 36.0544 32.1478 34.5553C30.9133 33.8225 29.8887 33.2376 29.8764 33.2578C29.864 33.2712 29.7282 33.5267 29.5801 33.8292L29.3085 34.3805L29.506 34.5082C29.611 34.5754 30.3949 35.0326 31.2405 35.53C33.265 36.7065 33.6415 37.0763 33.4008 37.6342C33.302 37.8628 33.0922 38.0107 32.8761 38.0107C32.8144 38.0107 31.9441 37.6006 30.9504 37.0964C29.9566 36.5922 28.9691 36.0947 28.753 35.9872L28.3642 35.7922L28.1173 36.3637C27.9815 36.6796 27.8827 36.962 27.9012 36.9889C27.9136 37.0158 28.679 37.4124 29.5986 37.8763C30.5183 38.3401 31.2713 38.7368 31.2713 38.7569C31.2713 38.7771 31.2096 38.8981 31.1294 39.0258C30.9504 39.3149 30.6232 39.5569 30.4072 39.5569C30.2097 39.5569 29.1295 39.1603 27.9877 38.6763L27.2038 38.3401L27.3025 38.0914C27.463 37.6813 27.4321 36.9418 27.2346 36.5048C26.9877 35.9536 26.4878 35.5368 25.957 35.4292C25.7409 35.3889 25.7348 35.3754 25.6916 35.0258C25.6422 34.5284 25.5064 34.2191 25.1793 33.8359C24.8892 33.4998 24.4015 33.2376 24.0621 33.2376H23.8954V32.6796C23.8954 31.8124 23.5991 31.2611 22.914 30.8645C22.7042 30.7435 22.5622 30.7166 22.0437 30.7166C21.5314 30.7166 21.3833 30.7435 21.1796 30.8645L20.9265 31.0057L20.8093 30.8107C20.6179 30.5082 20.2105 30.2259 19.7908 30.1048C19.0872 29.9099 18.5317 30.0981 17.9144 30.7502L17.5256 31.1536L17.1861 30.6359C17.0009 30.3469 16.7664 29.9838 16.6738 29.8292L16.5072 29.5469L18.3959 26.1317C19.4328 24.2561 20.334 22.6225 20.4019 22.5015L20.5253 22.2864L20.9142 22.4746C21.1302 22.5822 21.6919 22.8107 22.1672 22.9923ZM19.7661 31.5838C19.8834 31.7116 19.976 31.8796 19.976 31.9603C19.976 32.041 19.7908 32.3435 19.5563 32.6527C19.3217 32.9553 18.9576 33.4527 18.7477 33.7553C18.3403 34.3469 18.2601 34.3939 17.9391 34.2124C17.7354 34.0981 17.6305 33.9233 17.6305 33.6948C17.6305 33.4595 17.9638 32.7401 18.2724 32.3099C18.9699 31.3284 19.3588 31.1401 19.7661 31.5838ZM22.3523 32.0544C22.4634 32.1082 22.5869 32.209 22.6239 32.283C22.7288 32.4981 22.7042 32.9015 22.5684 33.1973C22.4264 33.52 21.4944 34.7973 20.9142 35.4628C20.4204 36.0342 20.1365 36.209 19.7476 36.1821C19.4081 36.1553 19.223 35.9401 19.223 35.5704C19.223 35.2746 19.6303 34.6359 20.766 33.1502C21.6734 31.967 21.8585 31.8326 22.3523 32.0544ZM24.3151 34.7838C24.5065 35.0124 24.5312 35.3216 24.3954 35.6847C24.2843 35.9737 23.1671 37.4796 22.735 37.93C22.3585 38.3132 22.1733 38.4141 21.8524 38.4141C21.5561 38.4141 21.2722 38.1115 21.2722 37.7956C21.2722 37.2645 21.9326 36.162 22.7844 35.2611C23.3769 34.6426 23.6115 34.4947 23.9571 34.5553C24.0621 34.5687 24.2164 34.6763 24.3151 34.7838ZM25.9076 36.8006C26.0804 36.9082 26.2285 37.2578 26.1853 37.4796C26.1483 37.7015 25.4138 38.9183 25.062 39.3418C24.8706 39.5771 24.7657 39.6443 24.562 39.6712C24.3336 39.7048 24.2781 39.6847 24.1114 39.5031C24.0065 39.3821 23.9263 39.2275 23.9263 39.1267C23.9263 38.6897 24.4447 37.7485 25.1052 36.9889C25.2842 36.7805 25.3706 36.7334 25.5558 36.7334C25.6854 36.7334 25.8397 36.767 25.9076 36.8006Z" fill="#242423"/>
<defs>
<filter id="filter0_d_1715_2882" x="0" y="1" width="56" height="56" filterUnits="userSpaceOnUse" color-interpolation-filters="sRGB">
<feFlood flood-opacity="0" result="BackgroundImageFix"/>
<feColorMatrix in="SourceAlpha" type="matrix" values="0 0 0 0 0 0 0 0 0 0 0 0 0 0 0 0 0 0 127 0" result="hardAlpha"/>
<feOffset dy="1"/>
<feGaussianBlur stdDeviation="2.5"/>
<feComposite in2="hardAlpha" operator="out"/>
<feColorMatrix type="matrix" values="0 0 0 0 0.721569 0 0 0 0 0.721569 0 0 0 0 0.721569 0 0 0 0.1 0"/>
<feBlend mode="normal" in2="BackgroundImageFix" result="effect1_dropShadow_1715_2882"/>
<feBlend mode="normal" in="SourceGraphic" in2="effect1_dropShadow_1715_2882" result="shape"/>
</filter>
</defs>
</svg>
