<svg width="56" height="57" viewBox="0 0 56 57" fill="none" xmlns="http://www.w3.org/2000/svg">
<g filter="url(#filter0_d_1728_2886)">
<path d="M28 51C40.7025 51 51 40.7025 51 28C51 15.2975 40.7025 5 28 5C15.2975 5 5 15.2975 5 28C5 40.7025 15.2975 51 28 51Z" fill="#BBED21"/>
</g>
<path d="M28.4316 24.3594H34.5566" stroke="#242423" stroke-width="1.75" stroke-linecap="round" stroke-linejoin="round"/>
<path d="M21.4434 24.3594L22.3184 25.2344L24.9434 22.6094" stroke="#242423" stroke-width="1.75" stroke-linecap="round" stroke-linejoin="round"/>
<path d="M28.4316 32.5264H34.5566" stroke="#242423" stroke-width="1.75" stroke-linecap="round" stroke-linejoin="round"/>
<path d="M21.4434 32.5264L22.3184 33.4014L24.9434 30.7764" stroke="#242423" stroke-width="1.75" stroke-linecap="round" stroke-linejoin="round"/>
<path d="M24.5 39.6663H31.5C37.3334 39.6663 39.6667 37.333 39.6667 31.4997V24.4997C39.6667 18.6663 37.3334 16.333 31.5 16.333H24.5C18.6667 16.333 16.3334 18.6663 16.3334 24.4997V31.4997C16.3334 37.333 18.6667 39.6663 24.5 39.6663Z" stroke="#242423" stroke-width="1.75" stroke-linecap="round" stroke-linejoin="round"/>
<defs>
<filter id="filter0_d_1728_2886" x="0" y="1" width="56" height="56" filterUnits="userSpaceOnUse" color-interpolation-filters="sRGB">
<feFlood flood-opacity="0" result="BackgroundImageFix"/>
<feColorMatrix in="SourceAlpha" type="matrix" values="0 0 0 0 0 0 0 0 0 0 0 0 0 0 0 0 0 0 127 0" result="hardAlpha"/>
<feOffset dy="1"/>
<feGaussianBlur stdDeviation="2.5"/>
<feComposite in2="hardAlpha" operator="out"/>
<feColorMatrix type="matrix" values="0 0 0 0 0.721569 0 0 0 0 0.721569 0 0 0 0 0.721569 0 0 0 0.1 0"/>
<feBlend mode="normal" in2="BackgroundImageFix" result="effect1_dropShadow_1728_2886"/>
<feBlend mode="normal" in="SourceGraphic" in2="effect1_dropShadow_1728_2886" result="shape"/>
</filter>
</defs>
</svg>
