<svg width="56" height="57" viewBox="0 0 56 57" fill="none" xmlns="http://www.w3.org/2000/svg">
<g filter="url(#filter0_d_1728_2960)">
<path d="M28 51C40.7025 51 51 40.7025 51 28C51 15.2975 40.7025 5 28 5C15.2975 5 5 15.2975 5 28C5 40.7025 15.2975 51 28 51Z" fill="#BBED21"/>
</g>
<path d="M24.1173 30.7176C24.1173 32.2227 25.2723 33.436 26.7074 33.436H29.6357C30.8841 33.436 31.8991 32.3743 31.8991 31.0676C31.8991 29.6443 31.2808 29.1426 30.3591 28.8159L25.6573 27.1826C24.7357 26.8559 24.1173 26.3542 24.1173 24.9309C24.1173 23.6242 25.1323 22.5625 26.3807 22.5625H29.3091C30.7441 22.5625 31.8991 23.7759 31.8991 25.2809" stroke="#242423" stroke-width="1.75003" stroke-linecap="round" stroke-linejoin="round"/>
<path d="M28.0002 21V35.0002" stroke="#242423" stroke-width="1.75003" stroke-linecap="round" stroke-linejoin="round"/>
<path d="M28.0002 39.6667C34.4437 39.6667 39.6671 34.4433 39.6671 27.9999C39.6671 21.5564 34.4437 16.333 28.0002 16.333C21.5568 16.333 16.3334 21.5564 16.3334 27.9999C16.3334 34.4433 21.5568 39.6667 28.0002 39.6667Z" stroke="#242423" stroke-width="1.75003" stroke-linecap="round" stroke-linejoin="round"/>
<defs>
<filter id="filter0_d_1728_2960" x="0" y="1" width="56" height="56" filterUnits="userSpaceOnUse" color-interpolation-filters="sRGB">
<feFlood flood-opacity="0" result="BackgroundImageFix"/>
<feColorMatrix in="SourceAlpha" type="matrix" values="0 0 0 0 0 0 0 0 0 0 0 0 0 0 0 0 0 0 127 0" result="hardAlpha"/>
<feOffset dy="1"/>
<feGaussianBlur stdDeviation="2.5"/>
<feComposite in2="hardAlpha" operator="out"/>
<feColorMatrix type="matrix" values="0 0 0 0 0.721569 0 0 0 0 0.721569 0 0 0 0 0.721569 0 0 0 0.1 0"/>
<feBlend mode="normal" in2="BackgroundImageFix" result="effect1_dropShadow_1728_2960"/>
<feBlend mode="normal" in="SourceGraphic" in2="effect1_dropShadow_1728_2960" result="shape"/>
</filter>
</defs>
</svg>
